<svg width="81" height="55" viewBox="0 0 81 55" fill="none" xmlns="http://www.w3.org/2000/svg">
<path d="M39.4545 53.7664L37.5248 13.3022C37.4896 12.5591 37.9672 11.9321 38.5699 11.9321H42.4284C43.0311 11.9321 43.5087 12.5591 43.4734 13.3022L41.5437 53.7664C41.4679 55.3901 39.5321 55.3901 39.4545 53.7664Z" fill="url(#paint0_linear_12_103)"/>
<path d="M40.4996 9.67684C43.1547 9.67684 45.3071 7.51061 45.3071 4.83842C45.3071 2.16624 43.1547 0 40.4996 0C37.8445 0 35.6921 2.16624 35.6921 4.83842C35.6921 7.51061 37.8445 9.67684 40.4996 9.67684Z" fill="url(#paint1_radial_12_103)"/>
<path d="M43.5836 13.482H37.4156C36.7829 13.482 36.2701 12.9658 36.2701 12.3291C36.2701 11.6924 36.7829 11.1763 37.4156 11.1763H43.5836C44.2162 11.1763 44.7291 11.6924 44.7291 12.3291C44.7291 12.9658 44.2162 13.482 43.5836 13.482Z" fill="#00868A"/>
<path d="M80.5308 24.2815L51.9792 13.0492C51.7122 12.9437 51.4073 13.0005 51.2002 13.2C48.4132 15.8852 44.2542 16.7046 41.1261 16.9042C40.9173 16.9175 40.7085 16.9246 40.4996 16.9246V25.6916C42.5051 25.6916 44.5115 26.299 46.2324 27.5131C47.5638 28.4522 48.8538 29.417 49.9895 30.2932C52.6515 32.3453 56.1161 33.021 59.3482 32.1236C59.9588 31.9542 60.0901 31.1419 59.5649 30.7863L51.0927 25.3067C50.3217 24.7844 51.0143 23.5987 51.8426 24.0235L62.8155 30.6532C62.9785 30.7366 63.1662 30.757 63.3424 30.7091L69.1183 29.159C69.7765 28.9825 69.869 28.0815 69.261 27.7729L54.9601 21.5253C54.1221 21.1006 54.6808 19.8271 55.5575 20.1632L73.4614 27.6576C73.6341 27.7241 73.8253 27.7223 73.9972 27.6541L80.5308 25.6703C81.1565 25.4202 81.1565 24.5298 80.5308 24.2815Z" fill="url(#paint2_linear_12_103)"/>
<path d="M39.8731 16.9042C36.7451 16.7038 32.5861 15.8852 29.799 13.2C29.5919 13.0005 29.2871 12.9437 29.0201 13.0492L0.469318 24.2815C-0.156293 24.529 -0.156293 25.4202 0.468437 25.6685L7.00211 27.6523C7.17393 27.7206 7.36514 27.7224 7.53784 27.6558L25.4418 20.1614C26.3185 19.8253 26.8763 21.0988 26.0392 21.5236L11.7382 27.7711C11.1303 28.0797 11.2228 28.9807 11.881 29.1572L17.6569 30.7074C17.8331 30.7544 18.0217 30.7349 18.1838 30.6515L29.1567 24.0217C29.9849 23.5969 30.6784 24.7826 29.9065 25.3049L21.4343 30.7845C20.9092 31.1401 21.0405 31.9524 21.6511 32.1218C24.884 33.0193 28.3478 32.3435 31.0097 30.2914C32.1464 29.4153 33.4355 28.4504 34.7669 27.5113C36.4878 26.2973 38.4941 25.6898 40.4996 25.6898V16.9228C40.2908 16.9237 40.0819 16.9175 39.8731 16.9042Z" fill="url(#paint3_linear_12_103)"/>
<path d="M38.4421 32.5379C37.168 32.404 35.959 32.271 34.7774 32.0182C32.6151 31.5553 30.9815 30.696 30.2942 29.6611C29.2906 28.1491 30.4184 26.2008 32.0503 25.0586C32.5094 24.7367 32.623 24.1017 32.3032 23.6388C31.9833 23.1768 31.3524 23.0624 30.8925 23.3843C28.0437 25.3787 27.0833 28.4949 28.6086 30.7944C29.88 32.7108 32.4354 33.6029 34.3554 34.0135C34.4576 34.0357 34.5607 34.0552 34.6629 34.0756C35.8013 33.5019 37.1318 33.2535 38.4659 33.0567L38.4421 32.5379Z" fill="url(#paint4_linear_12_103)"/>
<path d="M42.0415 43.3561C42.9976 43.6425 43.6294 44.038 43.832 44.5036C43.9757 44.8335 43.803 45.2468 43.402 45.5323C43.0258 45.8001 42.4698 45.9491 41.9173 45.9553L41.8204 47.9967C41.845 47.9967 41.8697 47.9976 41.8944 47.9976C42.8698 47.9976 43.8408 47.7183 44.5731 47.1977C45.7617 46.3517 46.2208 44.908 45.6886 43.686C45.4727 43.1903 45.1273 42.7566 44.6541 42.3877C43.8893 42.6005 43.0284 42.7593 42.0653 42.8639L42.0415 43.3561Z" fill="url(#paint5_linear_12_103)"/>
<path d="M47.4703 34.8233C47.1222 34.5244 46.7407 34.2796 46.3354 34.0757C45.0956 34.3213 43.8285 34.4552 42.6011 34.5847C42.5544 34.59 42.5059 34.5945 42.4592 34.5998L42.4354 35.1044C43.9255 35.3305 45.2798 35.6232 46.1547 36.3752C46.6755 36.823 46.9768 37.4216 46.9795 38.0167C46.9821 38.5177 46.7724 38.9673 46.3733 39.3185C45.5327 40.0563 44.1193 40.5538 42.164 40.7995C41.8847 40.8349 41.5948 40.8642 41.2935 40.889C41.0203 40.9112 40.756 40.9396 40.5005 40.9715C39.9057 41.046 39.3585 41.1444 38.8589 41.2686C37.805 41.5311 36.9662 41.9044 36.3468 42.3877C35.8736 42.7566 35.5282 43.1894 35.3123 43.686C34.781 44.908 35.24 46.3518 36.4278 47.1978C37.1592 47.7183 38.1311 47.9977 39.1065 47.9977C39.1312 47.9977 39.1558 47.9968 39.1805 47.9968L39.0836 45.9554C38.5311 45.95 37.9751 45.8002 37.5989 45.5324C37.1979 45.2468 37.0261 44.8335 37.1697 44.5037C37.3724 44.0381 38.0042 43.6435 38.9602 43.3561C39.407 43.2222 39.9242 43.1123 40.5022 43.0289C40.8062 42.9854 41.1252 42.9491 41.4609 42.9216C41.668 42.9047 41.8689 42.8843 42.0671 42.8631C43.0302 42.7584 43.8911 42.5997 44.6559 42.3868C45.9345 42.0312 46.946 41.524 47.7082 40.8544C48.5523 40.1131 49.0149 39.1012 49.0088 38.0051C48.9999 36.8159 48.4404 35.656 47.4703 34.8233Z" fill="url(#paint6_linear_12_103)"/>
<path d="M50.1066 23.3843C49.6476 23.0624 49.0158 23.1768 48.6959 23.6388C48.3761 24.1008 48.4897 24.7367 48.9488 25.0586C50.5807 26.2017 51.7077 28.1491 50.7049 29.6611C50.0185 30.696 48.384 31.5553 46.2217 32.0182C45.041 32.271 43.832 32.4031 42.557 32.5379C42.5015 32.5441 42.446 32.5494 42.3905 32.5556C41.7702 32.6204 41.134 32.6878 40.4996 32.7693C40.2819 32.7977 40.0651 32.827 39.8484 32.8589C39.6211 32.8926 39.392 32.9245 39.1629 32.9565C38.9311 32.9893 38.6994 33.0221 38.4668 33.0558C37.1327 33.2527 35.8013 33.5019 34.6638 34.0747C34.2584 34.2787 33.8769 34.5235 33.5288 34.8223C32.5596 35.6559 31.9992 36.815 31.993 38.0042C31.9868 39.1003 32.4494 40.1121 33.2936 40.8535C34.0558 41.523 35.0664 42.0303 36.3459 42.3859C36.9653 41.9026 37.8041 41.5292 38.858 41.2667L38.836 40.7976C36.8807 40.552 35.4674 40.0545 34.6267 39.3166C34.2276 38.9655 34.0179 38.5159 34.0205 38.0148C34.024 37.4189 34.3245 36.8212 34.8453 36.3733C35.7211 35.6213 37.0746 35.3287 38.5646 35.1025C38.8536 35.0591 39.147 35.0174 39.4431 34.9757C39.6766 34.9429 39.9101 34.9101 40.1427 34.8755C40.2608 34.8578 40.3806 34.8427 40.4996 34.8267C41.1481 34.7389 41.8098 34.6662 42.4583 34.5979C42.5059 34.5926 42.5535 34.5882 42.6002 34.5829C43.8285 34.4543 45.0947 34.3195 46.3345 34.0738C46.4367 34.0534 46.5398 34.0339 46.642 34.0118C48.562 33.6012 51.1173 32.7082 52.3888 30.7927C53.9149 28.4949 52.9554 25.3787 50.1066 23.3843Z" fill="url(#paint7_linear_12_103)"/>
<defs>
<linearGradient id="paint0_linear_12_103" x1="40.4998" y1="54.9845" x2="40.4998" y2="11.9328" gradientUnits="userSpaceOnUse">
<stop stop-color="#4FBFA5"/>
<stop offset="1" stop-color="#006A65"/>
</linearGradient>
<radialGradient id="paint1_radial_12_103" cx="0" cy="0" r="1" gradientUnits="userSpaceOnUse" gradientTransform="translate(39.3104 4.17314) scale(4.80728 4.8382)">
<stop stop-color="#4FBFA5"/>
<stop offset="1" stop-color="#00868A"/>
</radialGradient>
<linearGradient id="paint2_linear_12_103" x1="40.4999" y1="22.7538" x2="81.0002" y2="22.7538" gradientUnits="userSpaceOnUse">
<stop stop-color="#4FBFA5"/>
<stop offset="1" stop-color="#00868A"/>
</linearGradient>
<linearGradient id="paint3_linear_12_103" x1="-0.00033037" y1="22.7538" x2="40.4999" y2="22.7538" gradientUnits="userSpaceOnUse">
<stop stop-color="#4FBFA5"/>
<stop offset="1" stop-color="#00868A"/>
</linearGradient>
<linearGradient id="paint4_linear_12_103" x1="27.8894" y1="28.6382" x2="38.4671" y2="28.6382" gradientUnits="userSpaceOnUse">
<stop stop-color="#4FBFA5"/>
<stop offset="1" stop-color="#00868A"/>
</linearGradient>
<linearGradient id="paint5_linear_12_103" x1="41.8202" y1="45.1925" x2="45.9074" y2="45.1925" gradientUnits="userSpaceOnUse">
<stop stop-color="#00868A"/>
<stop offset="1" stop-color="#4FBFA5"/>
</linearGradient>
<linearGradient id="paint6_linear_12_103" x1="35.0923" y1="41.0365" x2="49.0061" y2="41.0365" gradientUnits="userSpaceOnUse">
<stop stop-color="#00868A"/>
<stop offset="1" stop-color="#4FBFA5"/>
</linearGradient>
<linearGradient id="paint7_linear_12_103" x1="31.9936" y1="32.7943" x2="53.1103" y2="32.7943" gradientUnits="userSpaceOnUse">
<stop stop-color="#4FBFA5"/>
<stop offset="1" stop-color="#00868A"/>
</linearGradient>
</defs>
</svg>
